<?xml version="1.0" encoding="iso-8859-1"?>
<!-- Uploaded to: SVG Repo, www.svgrepo.com, Generator: SVG Repo Mixer Tools -->
<!DOCTYPE svg PUBLIC "-//W3C//DTD SVG 1.1//EN" "http://www.w3.org/Graphics/SVG/1.1/DTD/svg11.dtd">
<svg fill="#000000" height="800px" width="800px" version="1.1" id="Capa_1" xmlns="http://www.w3.org/2000/svg" xmlns:xlink="http://www.w3.org/1999/xlink" 
	 viewBox="0 0 222.435 222.435" xml:space="preserve">
<g>
	<path d="M221.254,71.755c-0.306-0.713-7.702-17.667-25.447-34.959c-16.348-15.931-44.984-35.246-88.577-36.79
		c-2.112-0.083-4.147,0.741-5.622,2.245c-1.475,1.505-2.249,3.561-2.132,5.665c0.008,0.146,0.476,8.815,0.506,21.156
		c-32.125-1.382-53.875,12.78-65.722,23.689c-2.319-6.904-4.044-13.022-5.081-17.375c-0.765-3.219-3.549-5.557-6.852-5.753
		c-3.313-0.196-6.345,1.795-7.485,4.901L1.033,72.128c-0.466,1.269-0.581,2.641-0.331,3.97
		C17.65,166.362,63.23,222.435,119.655,222.435c29.651,0,56.285-15.793,74.997-44.471c17.547-26.894,27.21-63.562,27.21-103.251
		C221.862,73.697,221.655,72.69,221.254,71.755z M99.788,44.085c-0.137,4.686-0.354,9.567-0.684,14.483
		c-0.054,0.796-0.109,1.577-0.167,2.349c-25.307,1.338-42.101,13.071-51.73,22.671c-2.627-4.963-5.032-10.202-7.183-15.397
		C48.167,59.246,67.797,42.578,99.788,44.085z M97.396,76.05c-3.988,29.777-11.242,34.182-12.861,34.797
		c-2.291,0.869-4.552,1.31-6.722,1.31c-8.226,0-15.827-6.274-22.487-15.38C62.79,88.303,76.147,77.818,97.396,76.05z
		 M182.09,169.767c-11.212,17.184-31.145,37.668-62.435,37.668c-57.665,0-91.335-67.846-103.825-132.087l5.336-14.526
		c2.2,6.338,4.949,13.493,8.241,20.688c13.861,30.289,30.147,45.647,48.406,45.647c3.995,0,8.047-0.77,12.044-2.287
		c13.799-5.237,21.478-25.764,24.166-64.599c1.229-17.751,1.044-34.871,0.76-44.758c7.297,0.681,14.311,1.948,21.048,3.762
		l-10.02,57.752c-0.708,4.081,2.026,7.964,6.107,8.672c0.434,0.075,0.865,0.112,1.291,0.112c3.579,0,6.748-2.572,7.381-6.219
		l9.612-55.404c5.073,2.122,9.959,4.601,14.648,7.446l-13.4,58.912c-0.918,4.039,1.611,8.058,5.65,8.977
		c0.56,0.127,1.119,0.188,1.67,0.188c3.423,0,6.515-2.359,7.307-5.838l12.015-52.821c2.322,1.917,4.593,3.926,6.797,6.052
		c1.013,0.976,1.976,1.951,2.914,2.923L177.182,94.45c-0.964,4.029,1.521,8.075,5.55,9.039c0.587,0.14,1.173,0.207,1.75,0.207
		c3.391,0,6.466-2.316,7.288-5.757l7.98-33.377c3.776,5.438,6.09,9.771,7.107,11.821
		C206.595,112.544,197.822,145.654,182.09,169.767z"/>
	<path d="M157.406,149.228c-39.951-25.098-74.56-0.781-76.015,0.266c-3.35,2.414-4.104,7.072-1.706,10.433
		c2.4,3.361,7.08,4.14,10.449,1.755c1.131-0.8,28.065-19.371,59.293,0.248c1.239,0.778,2.619,1.15,3.982,1.15
		c2.494,0,4.933-1.244,6.357-3.511C161.972,156.061,160.914,151.432,157.406,149.228z"/>
</g>
</svg>