<?xml version="1.0" ?>
<!-- Uploaded to: SVG Repo, www.svgrepo.com, Generator: SVG Repo Mixer Tools -->
<svg width="800px" height="800px" viewBox="0 0 25 25" xmlns="http://www.w3.org/2000/svg">
<defs>
<style>.cls-1{fill:#ff7900;}</style>
</defs>
<g id="birthday">
<path class="cls-1" d="M22.5,3H21V2a1,1,0,0,0-1-1H19a1,1,0,0,0-1,1V3H14V2a1,1,0,0,0-1-1H12a1,1,0,0,0-1,1V3H7V2A1,1,0,0,0,6,1H5A1,1,0,0,0,4,2V3H2.5A1.5,1.5,0,0,0,1,4.5v18A1.5,1.5,0,0,0,2.5,24h20A1.5,1.5,0,0,0,24,22.5V4.5A1.5,1.5,0,0,0,22.5,3ZM19,2l1,0,0,3L19,5ZM12,2l1,0V3.44s0,0,0,.06,0,0,0,.07L13,5,12,5ZM5,2,6,2,6,5,5,5ZM2.5,4H4V5A1,1,0,0,0,5,6H6A1,1,0,0,0,7,5V4h4V5a1,1,0,0,0,1,1H13a1,1,0,0,0,1-1V4h4V5a1,1,0,0,0,1,1H20a1,1,0,0,0,1-1V4h1.5a.5.5,0,0,1,.5.5V8H2V4.5A.5.5,0,0,1,2.5,4Zm20,19H2.5a.5.5,0,0,1-.5-.5V9H23V22.5A.5.5,0,0,1,22.5,23Z"/>
<path class="cls-1" d="M17.5,15H16V13.91a1.51,1.51,0,0,0,1-1.41c0-.58-.47-2.5-1.5-2.5S14,11.92,14,12.5a1.51,1.51,0,0,0,1,1.41V15H13V13.91a1.51,1.51,0,0,0,1-1.41c0-.58-.47-2.5-1.5-2.5S11,11.92,11,12.5a1.51,1.51,0,0,0,1,1.41V15H10V13.91a1.51,1.51,0,0,0,1-1.41c0-.58-.47-2.5-1.5-2.5S8,11.92,8,12.5a1.51,1.51,0,0,0,1,1.41V15H7.5a.5.5,0,0,0-.5.5v6a.5.5,0,0,0,.5.5h10a.5.5,0,0,0,.5-.5v-6A.5.5,0,0,0,17.5,15Zm-2-4A3.21,3.21,0,0,1,16,12.5a.5.5,0,0,1-1,0A3.21,3.21,0,0,1,15.5,11Zm-3,0A3.21,3.21,0,0,1,13,12.5a.5.5,0,0,1-1,0A3.21,3.21,0,0,1,12.5,11Zm-3,0A3.21,3.21,0,0,1,10,12.5a.5.5,0,0,1-1,0A3.21,3.21,0,0,1,9.5,11ZM17,16v1.27a2.53,2.53,0,0,1-1.52.73,2.11,2.11,0,0,1-1.23-.41A3.08,3.08,0,0,0,12.5,17a3.08,3.08,0,0,0-1.75.59A2.09,2.09,0,0,1,9.52,18,2.53,2.53,0,0,1,8,17.27V16ZM8,21V18.51A3.21,3.21,0,0,0,9.48,19a2.85,2.85,0,0,0,1.79-.56A2.16,2.16,0,0,1,12.5,18a2.16,2.16,0,0,1,1.23.44,3,3,0,0,0,1.66.56h.13A3.21,3.21,0,0,0,17,18.51V21Z"/>
</g>
</svg>