<?xml version="1.0" encoding="iso-8859-1"?>
<!-- Uploaded to: SVG Repo, www.svgrepo.com, Generator: SVG Repo Mixer Tools -->
<svg fill="#000000" height="800px" width="800px" version="1.1" id="Layer_1" xmlns="http://www.w3.org/2000/svg" xmlns:xlink="http://www.w3.org/1999/xlink" 
	 viewBox="0 0 302.25 302.25" xml:space="preserve">
<g>
	<g>
		<path d="M290.192,270.772c-1.689-4.674-6.846-7.096-11.522-5.407l-18.417,6.652l-30.2-83.612
			c22.259-12.605,32.906-39.835,23.931-64.686L211.445,5.945c-1.689-4.674-6.846-7.097-11.522-5.407l-48.798,17.625L102.326,0.538
			C97.65-1.151,92.492,1.27,90.804,5.945L48.265,123.719c-8.975,24.85,1.672,52.081,23.931,64.685l-30.2,83.612l-18.417-6.652
			c-4.674-1.688-9.834,0.732-11.522,5.407c-1.688,4.675,0.732,9.834,5.407,11.522l53.763,19.419c1.01,0.365,2.042,0.538,3.057,0.538
			c3.684,0,7.142-2.28,8.465-5.945c1.688-4.675-0.732-9.834-5.407-11.522l-18.417-6.652l30.194-83.596
			c3.144,0.571,6.315,0.862,9.481,0.862c7.747,0,15.466-1.706,22.687-5.095c12.932-6.069,22.727-16.811,27.58-30.247l2.257-6.248
			l2.257,6.248c4.853,13.436,14.648,24.178,27.58,30.247c7.222,3.389,14.939,5.095,22.687,5.095c3.166,0,6.337-0.291,9.481-0.862
			l30.194,83.596l-18.417,6.652c-4.675,1.688-7.096,6.847-5.407,11.522c1.324,3.665,4.781,5.945,8.465,5.945
			c1.015,0,2.047-0.173,3.057-0.538l53.763-19.419C289.46,280.605,291.881,275.447,290.192,270.772z M191.089,35.401
			c-1.014-2.161-2.845-3.83-5.09-4.641l-8.381-3.027l19.955-7.208l19.676,54.474l-43.31,15.643l17.467-48.36
			C192.217,40.037,192.103,37.562,191.089,35.401z M131.938,153.94c-3.22,8.914-9.718,16.041-18.297,20.067
			c-8.579,4.026-18.213,4.472-27.127,1.251c-18.401-6.646-27.964-27.024-21.318-45.425l13.691-37.904l66.743,24.107L131.938,153.94z
			 M151.744,99.107L85,74.999l19.676-54.474l66.744,24.107L151.744,99.107z M215.736,175.259
			c-8.914,3.219-18.549,2.775-27.128-1.252c-8.58-4.026-15.078-11.153-18.297-20.067l-9.617-26.626l5.295-14.661l57.375-20.723
			l13.69,37.904C243.7,148.235,234.137,168.613,215.736,175.259z"/>
	</g>
</g>
</svg>